<?xml version="1.0" encoding="UTF-8" standalone="no" ?>
<!DOCTYPE svg PUBLIC "-//W3C//DTD SVG 1.1//EN" "http://www.w3.org/Graphics/SVG/1.1/DTD/svg11.dtd">
<svg xmlns="http://www.w3.org/2000/svg" xmlns:xlink="http://www.w3.org/1999/xlink" version="1.1" width="143.67573329567534" height="57.3008356545961" viewBox="0.5974930362117448 0.9456824512534823 143.67573329567534 57.3008356545961" xml:space="preserve">
<desc>Created with Fabric.js 5.3.0</desc>
<defs>
</defs>
<g transform="matrix(1 0 0 1 72.435359684 29.5961002786)" id="Yowvl3-e6uPBQ_EA-aUyI"  >
<path style="stroke:white;stroke-width: 1; stroke-dasharray: none; stroke-linecap: butt; stroke-dashoffset: 0; stroke-linejoin: miter; stroke-miterlimit: 4; stroke: white;fill-rule: nonzero; opacity: 1;filter: url(#SVGID_84);"  transform=" translate(0, 0)" d="M -62.33787 -19.15042 C 40.029819999999994 -18.45404 60.398900000000005 -19.15042 62.313939999999995 -16.3649 C 64.22897999999999 -13.579379999999999 -49.454860000000004 -10.967959999999998 -54.67770000000001 -8.008349999999998 C -59.90054000000001 -5.048739999999999 37.4184 -6.615589999999998 41.42257999999999 -4.526459999999998 C 45.42675999999999 -2.4373199999999984 -32.74177000000001 -2.4373199999999984 -38.660990000000005 0.34819000000000155 C -44.58021000000001 3.1337100000000015 12.522849999999991 3.6559900000000014 17.745699999999992 6.6156000000000015 C 22.96853999999999 9.575210000000002 -12.894970000000008 9.052930000000002 -17.76962000000001 12.186630000000001 C -22.64427000000001 15.320330000000002 -5.7570900000000105 17.40947 -1.7529100000000106 19.15042" stroke-linecap="round" />
<filter id="SVGID_84" y="-30.44363636%" height="160.88727272%" x="-23.20832282%" width="146.41664564%" >
	<feGaussianBlur in="SourceAlpha" stdDeviation="0"></feGaussianBlur>
	<feOffset dx="4" dy="4" result="oBlur" ></feOffset>
	<feFlood flood-color="rgb(255,255,255)" flood-opacity="1"/>
	<feComposite in2="oBlur" operator="in" />
	<feMerge>
		<feMergeNode></feMergeNode>
		<feMergeNode in="SourceGraphic"></feMergeNode>
	</feMerge>
</filter>
<path style="stroke: rgb(255,250,0); stroke-width: 1; stroke-dasharray: none; stroke-linecap: butt; stroke-dashoffset: 0; stroke-linejoin: miter; stroke-miterlimit: 4; fill: rgb(255,255,255); fill-opacity: 0; fill-rule: nonzero; opacity: 1;"  transform=" translate(0, 0)" d="M -62.33787 -19.15042 C 40.029819999999994 -18.45404 60.398900000000005 -19.15042 62.313939999999995 -16.3649 C 64.22897999999999 -13.579379999999999 -49.454860000000004 -10.967959999999998 -54.67770000000001 -8.008349999999998 C -59.90054000000001 -5.048739999999999 37.4184 -6.615589999999998 41.42257999999999 -4.526459999999998 C 45.42675999999999 -2.4373199999999984 -32.74177000000001 -2.4373199999999984 -38.660990000000005 0.34819000000000155 C -44.58021000000001 3.1337100000000015 12.522849999999991 3.6559900000000014 17.745699999999992 6.6156000000000015 C 22.96853999999999 9.575210000000002 -12.894970000000008 9.052930000000002 -17.76962000000001 12.186630000000001 C -22.64427000000001 15.320330000000002 -5.7570900000000105 17.40947 -1.7529100000000106 19.15042" stroke-linecap="round" />
</g>
</svg>